<svg width="32" height="32" viewBox="0 0 32 32" fill="none" xmlns="http://www.w3.org/2000/svg">
  <defs>
    <linearGradient id="goldGradient" x1="0%" y1="0%" x2="100%" y2="100%">
      <stop offset="0%" style="stop-color:#FFD700;stop-opacity:1" />
      <stop offset="100%" style="stop-color:#FFCC00;stop-opacity:1" />
    </linearGradient>
  </defs>
  
  <!-- Background -->
  <rect width="32" height="32" rx="8" fill="#0C0F14"/>
  
  <!-- F Letter -->
  <path d="M8 6h10v3h-7v3h6v3h-6v7h-3V6z" fill="url(#goldGradient)"/>
  
  <!-- D Letter -->
  <path d="M18 6h6c3 0 5 2 5 5v10c0 3-2 5-5 5h-6V6zm3 3v16h3c1.5 0 2-0.5 2-2V11c0-1.5-0.5-2-2-2h-3z" fill="url(#goldGradient)"/>
  
  <!-- Accent dot -->
  <circle cx="26" cy="10" r="1.5" fill="#FFD700"/>
</svg>